<svg width="13" height="13" viewBox="0 0 13 13" fill="none" xmlns="http://www.w3.org/2000/svg">
    <path fill-rule="evenodd" clip-rule="evenodd" d="M8.436.784s2.437 4.355 2.867 5.11a4.02 4.02 0 0 1 .614 2.21c0 2.231-1.705 4.174-3.8 4.174H4.215c-1.73-.033-3.13-1.672-3.13-3.517a3.358 3.358 0 0 1 .512-1.846c.354-.62 2.326-4.196 2.326-4.196a.361.361 0 0 1 .632 0l1.083 1.907L7.804.784a.361.361 0 0 1 .632 0zM5.25 11.555h2.506c.224 0 1.993 0 1.993-2.253a2.105 2.105 0 0 0-.343-1.159c-.228-.397-1.528-2.701-1.528-2.701a.18.18 0 0 0-.314 0L6.038 8.143v.029l-.643-1a.18.18 0 0 0-.303 0l-1.21 1.881a1.412 1.412 0 0 0-.27.845 1.69 1.69 0 0 0 1.639 1.658z" fill="#ED6A5A"/>
</svg>
