<svg width="230" height="230" viewBox="0 0 230 230" fill="none" xmlns="http://www.w3.org/2000/svg">
    <path fill-rule="evenodd" clip-rule="evenodd" d="m139.167 50.716-1.666 6.642 49.999-5.81 11.667-32.381-160.83 34.87 100.83-3.32zM59.999 67.321l.037.002-.034.004L60 67.32zm.037.002L230 51.551l-40.001 145.294-38.332-30.72L160 139.558l5.834 3.321 19.167-56.461-64.999.83 6.666-15.775-66.632-4.15zM0 45.736l110.831 88.009 9.167-17.438L0 45.735zm172.5 48.986h-39.999l-25.833 52.309L28.333 83.93l107.502 123.709L172.5 94.722z" fill="#FAFAFA"/>
</svg>
