<svg width="30" height="30" viewBox="0 0 30 30" fill="none" xmlns="http://www.w3.org/2000/svg">
    <path fill-rule="evenodd" clip-rule="evenodd" d="M17.982 9.38h-.88v-.861h-2.87v.86h-.88v-.86c0-.494.386-.902.88-.926h2.87c.493.024.88.432.88.926v.86zm-4.63 3.305h.926v6.945h-.926v-6.945zm4.63 0h-.926v6.945h.925v-6.945zm3.601-1.852H9.648a.463.463 0 1 1 0-.926h11.935a.463.463 0 0 1 0 .926zM11.435 22.407h8.463a1.356 1.356 0 0 0 1.324-1.389v-9.152h-.926v9.152a.43.43 0 0 1-.398.463h-8.463a.43.43 0 0 1-.398-.463v-9.152h-.926v9.152a1.356 1.356 0 0 0 1.324 1.39z" fill="#ED6A5A"/>
</svg>
